solid OpenSCAD_Model
  facet normal -1 0 0
    outer loop
      vertex 0 17.5 0
      vertex 0 12.5 5
      vertex 0 17.5 21
    endloop
  endfacet
  facet normal -1 0 0
    outer loop
      vertex 0 17.5 0
      vertex 0 -12.5 5
      vertex 0 12.5 5
    endloop
  endfacet
  facet normal -1 0 0
    outer loop
      vertex 0 -17.5 0
      vertex 0 -12.5 5
      vertex 0 17.5 0
    endloop
  endfacet
  facet normal -1 0 0
    outer loop
      vertex 0 -17.5 21
      vertex 0 -12.5 5
      vertex 0 -17.5 0
    endloop
  endfacet
  facet normal -1 0 0
    outer loop
      vertex 0 -12.5 5
      vertex 0 -17.5 21
      vertex 0 -12.5 21
    endloop
  endfacet
  facet normal -1 -0 0
    outer loop
      vertex 0 17.5 21
      vertex 0 12.5 5
      vertex 0 12.5 21
    endloop
  endfacet
  facet normal -0 0 1
    outer loop
      vertex 0 -12.5 21
      vertex 5 -17.5 21
      vertex 5 -12.5 21
    endloop
  endfacet
  facet normal 0 0 1
    outer loop
      vertex 5 -17.5 21
      vertex 0 -12.5 21
      vertex 0 -17.5 21
    endloop
  endfacet
  facet normal -0 0 1
    outer loop
      vertex 0 17.5 21
      vertex 5 12.5 21
      vertex 5 17.5 21
    endloop
  endfacet
  facet normal 0 0 1
    outer loop
      vertex 5 12.5 21
      vertex 0 17.5 21
      vertex 0 12.5 21
    endloop
  endfacet
  facet normal 1 0 0
    outer loop
      vertex 5 -12.5 21
      vertex 5 -17.5 21
      vertex 5 -12.5 5
    endloop
  endfacet
  facet normal 1 0 0
    outer loop
      vertex 5 12.5 5
      vertex 5 17.5 21
      vertex 5 12.5 21
    endloop
  endfacet
  facet normal 1 0 0
    outer loop
      vertex 5 17.5 21
      vertex 5 12.5 5
      vertex 5 17.5 0
    endloop
  endfacet
  facet normal 1 -0 0
    outer loop
      vertex 5 -12.5 5
      vertex 5 17.5 0
      vertex 5 12.5 5
    endloop
  endfacet
  facet normal 1 0 0
    outer loop
      vertex 5 -12.5 5
      vertex 5 -17.5 0
      vertex 5 17.5 0
    endloop
  endfacet
  facet normal 1 0 0
    outer loop
      vertex 5 -17.5 0
      vertex 5 -12.5 5
      vertex 5 -17.5 21
    endloop
  endfacet
  facet normal 0 1 -0
    outer loop
      vertex 5 17.5 0
      vertex 0 17.5 21
      vertex 5 17.5 21
    endloop
  endfacet
  facet normal 0 1 0
    outer loop
      vertex 0 17.5 21
      vertex 5 17.5 0
      vertex 0 17.5 0
    endloop
  endfacet
  facet normal 0 0 -1
    outer loop
      vertex 0 -17.5 0
      vertex 5 17.5 0
      vertex 5 -17.5 0
    endloop
  endfacet
  facet normal -0 0 -1
    outer loop
      vertex 5 17.5 0
      vertex 0 -17.5 0
      vertex 0 17.5 0
    endloop
  endfacet
  facet normal 0 -1 0
    outer loop
      vertex 0 -17.5 0
      vertex 5 -17.5 21
      vertex 0 -17.5 21
    endloop
  endfacet
  facet normal 0 -1 -0
    outer loop
      vertex 5 -17.5 21
      vertex 0 -17.5 0
      vertex 5 -17.5 0
    endloop
  endfacet
  facet normal -0 0 1
    outer loop
      vertex 0 12.5 5
      vertex 5 -12.5 5
      vertex 5 12.5 5
    endloop
  endfacet
  facet normal 0 0 1
    outer loop
      vertex 5 -12.5 5
      vertex 0 12.5 5
      vertex 0 -12.5 5
    endloop
  endfacet
  facet normal 0 1 -0
    outer loop
      vertex 5 -12.5 5
      vertex 0 -12.5 21
      vertex 5 -12.5 21
    endloop
  endfacet
  facet normal 0 1 0
    outer loop
      vertex 0 -12.5 21
      vertex 5 -12.5 5
      vertex 0 -12.5 5
    endloop
  endfacet
  facet normal 0 -1 0
    outer loop
      vertex 0 12.5 5
      vertex 5 12.5 21
      vertex 0 12.5 21
    endloop
  endfacet
  facet normal 0 -1 -0
    outer loop
      vertex 5 12.5 21
      vertex 0 12.5 5
      vertex 5 12.5 5
    endloop
  endfacet
endsolid OpenSCAD_Model
