solid OpenSCAD_Model
  facet normal -1 0 0
    outer loop
      vertex -20 -12 0
      vertex -20 28 3
      vertex -20 28 0
    endloop
  endfacet
  facet normal -1 -0 0
    outer loop
      vertex -20 28 3
      vertex -20 -12 0
      vertex -20 -12 3
    endloop
  endfacet
  facet normal 0 0 1
    outer loop
      vertex 17.4852 16.8291 3
      vertex 20 28 3
      vertex 17.5 17.3 3
    endloop
  endfacet
  facet normal 0 0 1
    outer loop
      vertex 20 28 3
      vertex 17.4852 17.7709 3
      vertex 17.5 17.3 3
    endloop
  endfacet
  facet normal 0 0 1
    outer loop
      vertex 20 28 3
      vertex 17.4409 18.24 3
      vertex 17.4852 17.7709 3
    endloop
  endfacet
  facet normal 0 0 1
    outer loop
      vertex 20 28 3
      vertex 17.3672 18.7054 3
      vertex 17.4409 18.24 3
    endloop
  endfacet
  facet normal 0 0 1
    outer loop
      vertex 20 28 3
      vertex 17.2644 19.1652 3
      vertex 17.3672 18.7054 3
    endloop
  endfacet
  facet normal 0 0 1
    outer loop
      vertex 20 28 3
      vertex 17.1329 19.6176 3
      vertex 17.2644 19.1652 3
    endloop
  endfacet
  facet normal 0 0 1
    outer loop
      vertex 20 28 3
      vertex 16.9733 20.0609 3
      vertex 17.1329 19.6176 3
    endloop
  endfacet
  facet normal 0 0 1
    outer loop
      vertex 20 28 3
      vertex 16.7862 20.4933 3
      vertex 16.9733 20.0609 3
    endloop
  endfacet
  facet normal 0 0 1
    outer loop
      vertex 20 28 3
      vertex 16.5723 20.9132 3
      vertex 16.7862 20.4933 3
    endloop
  endfacet
  facet normal 0 0 1
    outer loop
      vertex 20 28 3
      vertex 16.3325 21.3187 3
      vertex 16.5723 20.9132 3
    endloop
  endfacet
  facet normal 0 0 1
    outer loop
      vertex 20 28 3
      vertex 16.0676 21.7084 3
      vertex 16.3325 21.3187 3
    endloop
  endfacet
  facet normal 0 0 1
    outer loop
      vertex 20 28 3
      vertex 15.7788 22.0807 3
      vertex 16.0676 21.7084 3
    endloop
  endfacet
  facet normal 0 0 1
    outer loop
      vertex 20 28 3
      vertex 15.4673 22.4341 3
      vertex 15.7788 22.0807 3
    endloop
  endfacet
  facet normal 0 0 1
    outer loop
      vertex 20 28 3
      vertex 15.1341 22.7673 3
      vertex 15.4673 22.4341 3
    endloop
  endfacet
  facet normal 0 0 1
    outer loop
      vertex 20 28 3
      vertex 14.7807 23.0788 3
      vertex 15.1341 22.7673 3
    endloop
  endfacet
  facet normal 0 0 1
    outer loop
      vertex 20 28 3
      vertex 14.4084 23.3676 3
      vertex 14.7807 23.0788 3
    endloop
  endfacet
  facet normal 0 0 1
    outer loop
      vertex 20 28 3
      vertex 14.0187 23.6325 3
      vertex 14.4084 23.3676 3
    endloop
  endfacet
  facet normal 0 0 1
    outer loop
      vertex 20 28 3
      vertex 13.6132 23.8723 3
      vertex 14.0187 23.6325 3
    endloop
  endfacet
  facet normal 0 0 1
    outer loop
      vertex 20 28 3
      vertex 13.1933 24.0862 3
      vertex 13.6132 23.8723 3
    endloop
  endfacet
  facet normal 0 0 1
    outer loop
      vertex 20 28 3
      vertex 12.7609 24.2733 3
      vertex 13.1933 24.0862 3
    endloop
  endfacet
  facet normal 0 0 1
    outer loop
      vertex 20 28 3
      vertex 12.3176 24.4329 3
      vertex 12.7609 24.2733 3
    endloop
  endfacet
  facet normal 0 0 1
    outer loop
      vertex 20 28 3
      vertex 11.8652 24.5644 3
      vertex 12.3176 24.4329 3
    endloop
  endfacet
  facet normal 0 0 1
    outer loop
      vertex 20 28 3
      vertex 11.4054 24.6672 3
      vertex 11.8652 24.5644 3
    endloop
  endfacet
  facet normal 0 0 1
    outer loop
      vertex 20 28 3
      vertex 10.94 24.7409 3
      vertex 11.4054 24.6672 3
    endloop
  endfacet
  facet normal 0 0 1
    outer loop
      vertex 20 28 3
      vertex 10.4709 24.7852 3
      vertex 10.94 24.7409 3
    endloop
  endfacet
  facet normal 0 0 1
    outer loop
      vertex 20 28 3
      vertex 10 24.8 3
      vertex 10.4709 24.7852 3
    endloop
  endfacet
  facet normal 0 0 1
    outer loop
      vertex 20 28 3
      vertex -10 24.8 3
      vertex 10 24.8 3
    endloop
  endfacet
  facet normal -0 0 1
    outer loop
      vertex -20 28 3
      vertex -10 24.8 3
      vertex 20 28 3
    endloop
  endfacet
  facet normal 0 0 1
    outer loop
      vertex -10 24.8 3
      vertex -20 28 3
      vertex -10.4709 24.7852 3
    endloop
  endfacet
  facet normal 0 0 1
    outer loop
      vertex -17.4852 17.7709 3
      vertex -20 28 3
      vertex -17.5 17.3 3
    endloop
  endfacet
  facet normal 0 0 1
    outer loop
      vertex -17.4409 18.24 3
      vertex -20 28 3
      vertex -17.4852 17.7709 3
    endloop
  endfacet
  facet normal 0 0 1
    outer loop
      vertex -17.3672 18.7054 3
      vertex -20 28 3
      vertex -17.4409 18.24 3
    endloop
  endfacet
  facet normal 0 0 1
    outer loop
      vertex -17.2644 19.1652 3
      vertex -20 28 3
      vertex -17.3672 18.7054 3
    endloop
  endfacet
  facet normal 0 0 1
    outer loop
      vertex -17.1329 19.6176 3
      vertex -20 28 3
      vertex -17.2644 19.1652 3
    endloop
  endfacet
  facet normal 0 0 1
    outer loop
      vertex -16.9733 20.0609 3
      vertex -20 28 3
      vertex -17.1329 19.6176 3
    endloop
  endfacet
  facet normal 0 0 1
    outer loop
      vertex -16.7862 20.4933 3
      vertex -20 28 3
      vertex -16.9733 20.0609 3
    endloop
  endfacet
  facet normal 0 0 1
    outer loop
      vertex -16.5723 20.9132 3
      vertex -20 28 3
      vertex -16.7862 20.4933 3
    endloop
  endfacet
  facet normal 0 0 1
    outer loop
      vertex -16.3325 21.3187 3
      vertex -20 28 3
      vertex -16.5723 20.9132 3
    endloop
  endfacet
  facet normal 0 0 1
    outer loop
      vertex -16.0676 21.7084 3
      vertex -20 28 3
      vertex -16.3325 21.3187 3
    endloop
  endfacet
  facet normal 0 0 1
    outer loop
      vertex -15.7788 22.0807 3
      vertex -20 28 3
      vertex -16.0676 21.7084 3
    endloop
  endfacet
  facet normal 0 0 1
    outer loop
      vertex -15.4673 22.4341 3
      vertex -20 28 3
      vertex -15.7788 22.0807 3
    endloop
  endfacet
  facet normal 0 0 1
    outer loop
      vertex -15.1341 22.7673 3
      vertex -20 28 3
      vertex -15.4673 22.4341 3
    endloop
  endfacet
  facet normal 0 0 1
    outer loop
      vertex -14.7807 23.0788 3
      vertex -20 28 3
      vertex -15.1341 22.7673 3
    endloop
  endfacet
  facet normal 0 0 1
    outer loop
      vertex -14.4084 23.3676 3
      vertex -20 28 3
      vertex -14.7807 23.0788 3
    endloop
  endfacet
  facet normal 0 0 1
    outer loop
      vertex -14.0187 23.6325 3
      vertex -20 28 3
      vertex -14.4084 23.3676 3
    endloop
  endfacet
  facet normal 0 0 1
    outer loop
      vertex -13.6132 23.8723 3
      vertex -20 28 3
      vertex -14.0187 23.6325 3
    endloop
  endfacet
  facet normal 0 0 1
    outer loop
      vertex -13.1933 24.0862 3
      vertex -20 28 3
      vertex -13.6132 23.8723 3
    endloop
  endfacet
  facet normal 0 0 1
    outer loop
      vertex -12.7609 24.2733 3
      vertex -20 28 3
      vertex -13.1933 24.0862 3
    endloop
  endfacet
  facet normal 0 0 1
    outer loop
      vertex -12.3176 24.4329 3
      vertex -20 28 3
      vertex -12.7609 24.2733 3
    endloop
  endfacet
  facet normal 0 0 1
    outer loop
      vertex -11.8652 24.5644 3
      vertex -20 28 3
      vertex -12.3176 24.4329 3
    endloop
  endfacet
  facet normal 0 0 1
    outer loop
      vertex -11.4054 24.6672 3
      vertex -20 28 3
      vertex -11.8652 24.5644 3
    endloop
  endfacet
  facet normal 0 0 1
    outer loop
      vertex -10.94 24.7409 3
      vertex -20 28 3
      vertex -11.4054 24.6672 3
    endloop
  endfacet
  facet normal 0 0 1
    outer loop
      vertex -10.4709 24.7852 3
      vertex -20 28 3
      vertex -10.94 24.7409 3
    endloop
  endfacet
  facet normal 0 0 1
    outer loop
      vertex 17.4409 16.36 3
      vertex 20 28 3
      vertex 17.4852 16.8291 3
    endloop
  endfacet
  facet normal 0 0 1
    outer loop
      vertex 20 28 3
      vertex 17.4409 16.36 3
      vertex 20 -12 3
    endloop
  endfacet
  facet normal -0 0 1
    outer loop
      vertex 17.3672 15.8946 3
      vertex 20 -12 3
      vertex 17.4409 16.36 3
    endloop
  endfacet
  facet normal -0 0 1
    outer loop
      vertex 17.2644 15.4348 3
      vertex 20 -12 3
      vertex 17.3672 15.8946 3
    endloop
  endfacet
  facet normal -0 0 1
    outer loop
      vertex 17.1329 14.9824 3
      vertex 20 -12 3
      vertex 17.2644 15.4348 3
    endloop
  endfacet
  facet normal -0 0 1
    outer loop
      vertex 16.9733 14.5391 3
      vertex 20 -12 3
      vertex 17.1329 14.9824 3
    endloop
  endfacet
  facet normal -0 0 1
    outer loop
      vertex 16.7862 14.1067 3
      vertex 20 -12 3
      vertex 16.9733 14.5391 3
    endloop
  endfacet
  facet normal -0 0 1
    outer loop
      vertex 16.5723 13.6868 3
      vertex 20 -12 3
      vertex 16.7862 14.1067 3
    endloop
  endfacet
  facet normal -0 0 1
    outer loop
      vertex 6.5723 -3.61315 3
      vertex 20 -12 3
      vertex 16.5723 13.6868 3
    endloop
  endfacet
  facet normal -0 0 1
    outer loop
      vertex 6.33246 -4.0187 3
      vertex 20 -12 3
      vertex 6.5723 -3.61315 3
    endloop
  endfacet
  facet normal -0 0 1
    outer loop
      vertex 6.06763 -4.40839 3
      vertex 20 -12 3
      vertex 6.33246 -4.0187 3
    endloop
  endfacet
  facet normal -0 0 1
    outer loop
      vertex 5.77885 -4.78068 3
      vertex 20 -12 3
      vertex 6.06763 -4.40839 3
    endloop
  endfacet
  facet normal -0 0 1
    outer loop
      vertex 5.46726 -5.1341 3
      vertex 20 -12 3
      vertex 5.77885 -4.78068 3
    endloop
  endfacet
  facet normal -0 0 1
    outer loop
      vertex 5.1341 -5.46726 3
      vertex 20 -12 3
      vertex 5.46726 -5.1341 3
    endloop
  endfacet
  facet normal -0 0 1
    outer loop
      vertex 4.78068 -5.77885 3
      vertex 20 -12 3
      vertex 5.1341 -5.46726 3
    endloop
  endfacet
  facet normal -0 0 1
    outer loop
      vertex 4.40839 -6.06763 3
      vertex 20 -12 3
      vertex 4.78068 -5.77885 3
    endloop
  endfacet
  facet normal -0 0 1
    outer loop
      vertex 4.0187 -6.33246 3
      vertex 20 -12 3
      vertex 4.40839 -6.06763 3
    endloop
  endfacet
  facet normal -0 0 1
    outer loop
      vertex 3.61315 -6.5723 3
      vertex 20 -12 3
      vertex 4.0187 -6.33246 3
    endloop
  endfacet
  facet normal -0 0 1
    outer loop
      vertex 3.19334 -6.7862 3
      vertex 20 -12 3
      vertex 3.61315 -6.5723 3
    endloop
  endfacet
  facet normal -0 0 1
    outer loop
      vertex 2.76093 -6.97332 3
      vertex 20 -12 3
      vertex 3.19334 -6.7862 3
    endloop
  endfacet
  facet normal -0 0 1
    outer loop
      vertex 2.31763 -7.13292 3
      vertex 20 -12 3
      vertex 2.76093 -6.97332 3
    endloop
  endfacet
  facet normal -0 0 1
    outer loop
      vertex 1.86517 -7.26437 3
      vertex 20 -12 3
      vertex 2.31763 -7.13292 3
    endloop
  endfacet
  facet normal -0 0 1
    outer loop
      vertex 1.40536 -7.36715 3
      vertex 20 -12 3
      vertex 1.86517 -7.26437 3
    endloop
  endfacet
  facet normal -0 0 1
    outer loop
      vertex 0.939999 -7.44086 3
      vertex 20 -12 3
      vertex 1.40536 -7.36715 3
    endloop
  endfacet
  facet normal -0 0 1
    outer loop
      vertex 0.470928 -7.4852 3
      vertex 20 -12 3
      vertex 0.939999 -7.44086 3
    endloop
  endfacet
  facet normal -0 0 1
    outer loop
      vertex 0 -7.5 3
      vertex 20 -12 3
      vertex 0.470928 -7.4852 3
    endloop
  endfacet
  facet normal 0 0 1
    outer loop
      vertex -20 -12 3
      vertex 0 -7.5 3
      vertex -0.470928 -7.4852 3
    endloop
  endfacet
  facet normal 0 0 1
    outer loop
      vertex -20 -12 3
      vertex -0.470928 -7.4852 3
      vertex -0.939999 -7.44086 3
    endloop
  endfacet
  facet normal 0 0 1
    outer loop
      vertex -20 -12 3
      vertex -0.939999 -7.44086 3
      vertex -1.40536 -7.36715 3
    endloop
  endfacet
  facet normal 0 0 1
    outer loop
      vertex -20 28 3
      vertex -17.4852 16.8291 3
      vertex -17.5 17.3 3
    endloop
  endfacet
  facet normal 0 0 1
    outer loop
      vertex -20 28 3
      vertex -17.4409 16.36 3
      vertex -17.4852 16.8291 3
    endloop
  endfacet
  facet normal 0 0 1
    outer loop
      vertex -20 -12 3
      vertex -17.4409 16.36 3
      vertex -20 28 3
    endloop
  endfacet
  facet normal 0 0 1
    outer loop
      vertex 0 -7.5 3
      vertex -20 -12 3
      vertex 20 -12 3
    endloop
  endfacet
  facet normal 0 0 1
    outer loop
      vertex -1.86517 -7.26437 3
      vertex -20 -12 3
      vertex -1.40536 -7.36715 3
    endloop
  endfacet
  facet normal 0 0 1
    outer loop
      vertex -2.31763 -7.13292 3
      vertex -20 -12 3
      vertex -1.86517 -7.26437 3
    endloop
  endfacet
  facet normal 0 0 1
    outer loop
      vertex -2.76093 -6.97332 3
      vertex -20 -12 3
      vertex -2.31763 -7.13292 3
    endloop
  endfacet
  facet normal 0 0 1
    outer loop
      vertex -3.19334 -6.7862 3
      vertex -20 -12 3
      vertex -2.76093 -6.97332 3
    endloop
  endfacet
  facet normal 0 0 1
    outer loop
      vertex -3.61315 -6.5723 3
      vertex -20 -12 3
      vertex -3.19334 -6.7862 3
    endloop
  endfacet
  facet normal 0 0 1
    outer loop
      vertex -4.0187 -6.33246 3
      vertex -20 -12 3
      vertex -3.61315 -6.5723 3
    endloop
  endfacet
  facet normal 0 0 1
    outer loop
      vertex -4.40839 -6.06763 3
      vertex -20 -12 3
      vertex -4.0187 -6.33246 3
    endloop
  endfacet
  facet normal 0 0 1
    outer loop
      vertex -4.78068 -5.77885 3
      vertex -20 -12 3
      vertex -4.40839 -6.06763 3
    endloop
  endfacet
  facet normal 0 0 1
    outer loop
      vertex -5.1341 -5.46726 3
      vertex -20 -12 3
      vertex -4.78068 -5.77885 3
    endloop
  endfacet
  facet normal 0 0 1
    outer loop
      vertex -5.46726 -5.1341 3
      vertex -20 -12 3
      vertex -5.1341 -5.46726 3
    endloop
  endfacet
  facet normal 0 0 1
    outer loop
      vertex -5.77885 -4.78068 3
      vertex -20 -12 3
      vertex -5.46726 -5.1341 3
    endloop
  endfacet
  facet normal 0 0 1
    outer loop
      vertex -6.06763 -4.40839 3
      vertex -20 -12 3
      vertex -5.77885 -4.78068 3
    endloop
  endfacet
  facet normal 0 0 1
    outer loop
      vertex -6.33246 -4.0187 3
      vertex -20 -12 3
      vertex -6.06763 -4.40839 3
    endloop
  endfacet
  facet normal 0 0 1
    outer loop
      vertex -6.5723 -3.61315 3
      vertex -20 -12 3
      vertex -6.33246 -4.0187 3
    endloop
  endfacet
  facet normal 0 0 1
    outer loop
      vertex -16.5723 13.6868 3
      vertex -20 -12 3
      vertex -6.5723 -3.61315 3
    endloop
  endfacet
  facet normal 0 0 1
    outer loop
      vertex -16.7862 14.1067 3
      vertex -20 -12 3
      vertex -16.5723 13.6868 3
    endloop
  endfacet
  facet normal 0 0 1
    outer loop
      vertex -16.9733 14.5391 3
      vertex -20 -12 3
      vertex -16.7862 14.1067 3
    endloop
  endfacet
  facet normal 0 0 1
    outer loop
      vertex -17.1329 14.9824 3
      vertex -20 -12 3
      vertex -16.9733 14.5391 3
    endloop
  endfacet
  facet normal 0 0 1
    outer loop
      vertex -17.2644 15.4348 3
      vertex -20 -12 3
      vertex -17.1329 14.9824 3
    endloop
  endfacet
  facet normal 0 0 1
    outer loop
      vertex -17.3672 15.8946 3
      vertex -20 -12 3
      vertex -17.2644 15.4348 3
    endloop
  endfacet
  facet normal 0 0 1
    outer loop
      vertex -17.4409 16.36 3
      vertex -20 -12 3
      vertex -17.3672 15.8946 3
    endloop
  endfacet
  facet normal 1 -0 0
    outer loop
      vertex 20 -12 3
      vertex 20 28 0
      vertex 20 28 3
    endloop
  endfacet
  facet normal 1 0 0
    outer loop
      vertex 20 28 0
      vertex 20 -12 3
      vertex 20 -12 0
    endloop
  endfacet
  facet normal 0 1 -0
    outer loop
      vertex 20 28 0
      vertex -20 28 3
      vertex 20 28 3
    endloop
  endfacet
  facet normal 0 1 0
    outer loop
      vertex -20 28 3
      vertex 20 28 0
      vertex -20 28 0
    endloop
  endfacet
  facet normal 0 0 -1
    outer loop
      vertex 17.4409 16.36 0
      vertex 20 28 0
      vertex 20 -12 0
    endloop
  endfacet
  facet normal 0 0 -1
    outer loop
      vertex 20 28 0
      vertex 17.4852 16.8291 0
      vertex 17.5 17.3 0
    endloop
  endfacet
  facet normal 0 0 -1
    outer loop
      vertex 20 28 0
      vertex 17.4409 16.36 0
      vertex 17.4852 16.8291 0
    endloop
  endfacet
  facet normal 0 0 -1
    outer loop
      vertex 20 -12 0
      vertex 17.3672 15.8946 0
      vertex 17.4409 16.36 0
    endloop
  endfacet
  facet normal 0 0 -1
    outer loop
      vertex 20 -12 0
      vertex 17.2644 15.4348 0
      vertex 17.3672 15.8946 0
    endloop
  endfacet
  facet normal 0 0 -1
    outer loop
      vertex 20 -12 0
      vertex 17.1329 14.9824 0
      vertex 17.2644 15.4348 0
    endloop
  endfacet
  facet normal 0 0 -1
    outer loop
      vertex 20 -12 0
      vertex 16.9733 14.5391 0
      vertex 17.1329 14.9824 0
    endloop
  endfacet
  facet normal 0 0 -1
    outer loop
      vertex 20 -12 0
      vertex 16.7862 14.1067 0
      vertex 16.9733 14.5391 0
    endloop
  endfacet
  facet normal 0 0 -1
    outer loop
      vertex 20 -12 0
      vertex 16.5723 13.6868 0
      vertex 16.7862 14.1067 0
    endloop
  endfacet
  facet normal 0 0 -1
    outer loop
      vertex 20 -12 0
      vertex 6.5723 -3.61315 0
      vertex 16.5723 13.6868 0
    endloop
  endfacet
  facet normal 0 0 -1
    outer loop
      vertex 20 -12 0
      vertex 6.33246 -4.0187 0
      vertex 6.5723 -3.61315 0
    endloop
  endfacet
  facet normal 0 0 -1
    outer loop
      vertex 20 -12 0
      vertex 6.06763 -4.40839 0
      vertex 6.33246 -4.0187 0
    endloop
  endfacet
  facet normal 0 0 -1
    outer loop
      vertex 20 -12 0
      vertex 5.77885 -4.78068 0
      vertex 6.06763 -4.40839 0
    endloop
  endfacet
  facet normal 0 0 -1
    outer loop
      vertex 20 -12 0
      vertex 5.46726 -5.1341 0
      vertex 5.77885 -4.78068 0
    endloop
  endfacet
  facet normal 0 0 -1
    outer loop
      vertex 20 -12 0
      vertex 5.1341 -5.46726 0
      vertex 5.46726 -5.1341 0
    endloop
  endfacet
  facet normal 0 0 -1
    outer loop
      vertex 20 -12 0
      vertex 4.78068 -5.77885 0
      vertex 5.1341 -5.46726 0
    endloop
  endfacet
  facet normal 0 0 -1
    outer loop
      vertex 20 -12 0
      vertex 4.40839 -6.06763 0
      vertex 4.78068 -5.77885 0
    endloop
  endfacet
  facet normal 0 0 -1
    outer loop
      vertex 20 -12 0
      vertex 4.0187 -6.33246 0
      vertex 4.40839 -6.06763 0
    endloop
  endfacet
  facet normal 0 0 -1
    outer loop
      vertex 20 -12 0
      vertex 3.61315 -6.5723 0
      vertex 4.0187 -6.33246 0
    endloop
  endfacet
  facet normal 0 0 -1
    outer loop
      vertex 20 -12 0
      vertex 3.19334 -6.7862 0
      vertex 3.61315 -6.5723 0
    endloop
  endfacet
  facet normal 0 0 -1
    outer loop
      vertex 20 -12 0
      vertex 2.76093 -6.97332 0
      vertex 3.19334 -6.7862 0
    endloop
  endfacet
  facet normal 0 0 -1
    outer loop
      vertex 20 -12 0
      vertex 2.31763 -7.13292 0
      vertex 2.76093 -6.97332 0
    endloop
  endfacet
  facet normal 0 0 -1
    outer loop
      vertex 20 -12 0
      vertex 1.86517 -7.26437 0
      vertex 2.31763 -7.13292 0
    endloop
  endfacet
  facet normal 0 0 -1
    outer loop
      vertex 20 -12 0
      vertex 1.40536 -7.36715 0
      vertex 1.86517 -7.26437 0
    endloop
  endfacet
  facet normal 0 0 -1
    outer loop
      vertex 20 -12 0
      vertex 0.939999 -7.44086 0
      vertex 1.40536 -7.36715 0
    endloop
  endfacet
  facet normal 0 0 -1
    outer loop
      vertex 20 -12 0
      vertex 0.470928 -7.4852 0
      vertex 0.939999 -7.44086 0
    endloop
  endfacet
  facet normal 0 0 -1
    outer loop
      vertex 20 -12 0
      vertex 0 -7.5 0
      vertex 0.470928 -7.4852 0
    endloop
  endfacet
  facet normal 0 0 -1
    outer loop
      vertex -20 -12 0
      vertex 0 -7.5 0
      vertex 20 -12 0
    endloop
  endfacet
  facet normal -0 0 -1
    outer loop
      vertex 0 -7.5 0
      vertex -20 -12 0
      vertex -0.470928 -7.4852 0
    endloop
  endfacet
  facet normal -0 0 -1
    outer loop
      vertex -0.470928 -7.4852 0
      vertex -20 -12 0
      vertex -0.939999 -7.44086 0
    endloop
  endfacet
  facet normal 0 0 -1
    outer loop
      vertex -17.4409 16.36 0
      vertex -20 28 0
      vertex -17.4852 16.8291 0
    endloop
  endfacet
  facet normal 0 0 -1
    outer loop
      vertex -20 28 0
      vertex -17.4409 16.36 0
      vertex -20 -12 0
    endloop
  endfacet
  facet normal -0 0 -1
    outer loop
      vertex -17.3672 15.8946 0
      vertex -20 -12 0
      vertex -17.4409 16.36 0
    endloop
  endfacet
  facet normal -0 0 -1
    outer loop
      vertex -17.2644 15.4348 0
      vertex -20 -12 0
      vertex -17.3672 15.8946 0
    endloop
  endfacet
  facet normal -0 0 -1
    outer loop
      vertex -17.1329 14.9824 0
      vertex -20 -12 0
      vertex -17.2644 15.4348 0
    endloop
  endfacet
  facet normal -0 0 -1
    outer loop
      vertex -16.9733 14.5391 0
      vertex -20 -12 0
      vertex -17.1329 14.9824 0
    endloop
  endfacet
  facet normal -0 0 -1
    outer loop
      vertex -16.7862 14.1067 0
      vertex -20 -12 0
      vertex -16.9733 14.5391 0
    endloop
  endfacet
  facet normal -0 0 -1
    outer loop
      vertex -16.5723 13.6868 0
      vertex -20 -12 0
      vertex -16.7862 14.1067 0
    endloop
  endfacet
  facet normal -0 0 -1
    outer loop
      vertex -6.5723 -3.61315 0
      vertex -20 -12 0
      vertex -16.5723 13.6868 0
    endloop
  endfacet
  facet normal -0 0 -1
    outer loop
      vertex -6.33246 -4.0187 0
      vertex -20 -12 0
      vertex -6.5723 -3.61315 0
    endloop
  endfacet
  facet normal -0 0 -1
    outer loop
      vertex -6.06763 -4.40839 0
      vertex -20 -12 0
      vertex -6.33246 -4.0187 0
    endloop
  endfacet
  facet normal -0 0 -1
    outer loop
      vertex -5.77885 -4.78068 0
      vertex -20 -12 0
      vertex -6.06763 -4.40839 0
    endloop
  endfacet
  facet normal -0 0 -1
    outer loop
      vertex -5.46726 -5.1341 0
      vertex -20 -12 0
      vertex -5.77885 -4.78068 0
    endloop
  endfacet
  facet normal -0 0 -1
    outer loop
      vertex -5.1341 -5.46726 0
      vertex -20 -12 0
      vertex -5.46726 -5.1341 0
    endloop
  endfacet
  facet normal -0 0 -1
    outer loop
      vertex -4.78068 -5.77885 0
      vertex -20 -12 0
      vertex -5.1341 -5.46726 0
    endloop
  endfacet
  facet normal -0 0 -1
    outer loop
      vertex -4.40839 -6.06763 0
      vertex -20 -12 0
      vertex -4.78068 -5.77885 0
    endloop
  endfacet
  facet normal -0 0 -1
    outer loop
      vertex -4.0187 -6.33246 0
      vertex -20 -12 0
      vertex -4.40839 -6.06763 0
    endloop
  endfacet
  facet normal -0 0 -1
    outer loop
      vertex -3.61315 -6.5723 0
      vertex -20 -12 0
      vertex -4.0187 -6.33246 0
    endloop
  endfacet
  facet normal -0 0 -1
    outer loop
      vertex -3.19334 -6.7862 0
      vertex -20 -12 0
      vertex -3.61315 -6.5723 0
    endloop
  endfacet
  facet normal -0 0 -1
    outer loop
      vertex -2.76093 -6.97332 0
      vertex -20 -12 0
      vertex -3.19334 -6.7862 0
    endloop
  endfacet
  facet normal -0 0 -1
    outer loop
      vertex -2.31763 -7.13292 0
      vertex -20 -12 0
      vertex -2.76093 -6.97332 0
    endloop
  endfacet
  facet normal -0 0 -1
    outer loop
      vertex -1.86517 -7.26437 0
      vertex -20 -12 0
      vertex -2.31763 -7.13292 0
    endloop
  endfacet
  facet normal -0 0 -1
    outer loop
      vertex -1.40536 -7.36715 0
      vertex -20 -12 0
      vertex -1.86517 -7.26437 0
    endloop
  endfacet
  facet normal -0 0 -1
    outer loop
      vertex -0.939999 -7.44086 0
      vertex -20 -12 0
      vertex -1.40536 -7.36715 0
    endloop
  endfacet
  facet normal 0 0 -1
    outer loop
      vertex 17.4852 17.7709 0
      vertex 20 28 0
      vertex 17.5 17.3 0
    endloop
  endfacet
  facet normal 0 0 -1
    outer loop
      vertex 17.4409 18.24 0
      vertex 20 28 0
      vertex 17.4852 17.7709 0
    endloop
  endfacet
  facet normal 0 0 -1
    outer loop
      vertex 17.3672 18.7054 0
      vertex 20 28 0
      vertex 17.4409 18.24 0
    endloop
  endfacet
  facet normal 0 0 -1
    outer loop
      vertex 17.2644 19.1652 0
      vertex 20 28 0
      vertex 17.3672 18.7054 0
    endloop
  endfacet
  facet normal 0 0 -1
    outer loop
      vertex 17.1329 19.6176 0
      vertex 20 28 0
      vertex 17.2644 19.1652 0
    endloop
  endfacet
  facet normal 0 0 -1
    outer loop
      vertex 16.9733 20.0609 0
      vertex 20 28 0
      vertex 17.1329 19.6176 0
    endloop
  endfacet
  facet normal 0 0 -1
    outer loop
      vertex 16.7862 20.4933 0
      vertex 20 28 0
      vertex 16.9733 20.0609 0
    endloop
  endfacet
  facet normal 0 0 -1
    outer loop
      vertex 16.5723 20.9132 0
      vertex 20 28 0
      vertex 16.7862 20.4933 0
    endloop
  endfacet
  facet normal 0 0 -1
    outer loop
      vertex 16.3325 21.3187 0
      vertex 20 28 0
      vertex 16.5723 20.9132 0
    endloop
  endfacet
  facet normal 0 0 -1
    outer loop
      vertex 16.0676 21.7084 0
      vertex 20 28 0
      vertex 16.3325 21.3187 0
    endloop
  endfacet
  facet normal 0 0 -1
    outer loop
      vertex 15.7788 22.0807 0
      vertex 20 28 0
      vertex 16.0676 21.7084 0
    endloop
  endfacet
  facet normal 0 0 -1
    outer loop
      vertex 15.4673 22.4341 0
      vertex 20 28 0
      vertex 15.7788 22.0807 0
    endloop
  endfacet
  facet normal 0 0 -1
    outer loop
      vertex 15.1341 22.7673 0
      vertex 20 28 0
      vertex 15.4673 22.4341 0
    endloop
  endfacet
  facet normal 0 0 -1
    outer loop
      vertex 14.7807 23.0788 0
      vertex 20 28 0
      vertex 15.1341 22.7673 0
    endloop
  endfacet
  facet normal 0 0 -1
    outer loop
      vertex 14.4084 23.3676 0
      vertex 20 28 0
      vertex 14.7807 23.0788 0
    endloop
  endfacet
  facet normal 0 0 -1
    outer loop
      vertex 14.0187 23.6325 0
      vertex 20 28 0
      vertex 14.4084 23.3676 0
    endloop
  endfacet
  facet normal 0 0 -1
    outer loop
      vertex 13.6132 23.8723 0
      vertex 20 28 0
      vertex 14.0187 23.6325 0
    endloop
  endfacet
  facet normal 0 0 -1
    outer loop
      vertex 13.1933 24.0862 0
      vertex 20 28 0
      vertex 13.6132 23.8723 0
    endloop
  endfacet
  facet normal 0 0 -1
    outer loop
      vertex 12.7609 24.2733 0
      vertex 20 28 0
      vertex 13.1933 24.0862 0
    endloop
  endfacet
  facet normal 0 0 -1
    outer loop
      vertex 12.3176 24.4329 0
      vertex 20 28 0
      vertex 12.7609 24.2733 0
    endloop
  endfacet
  facet normal 0 0 -1
    outer loop
      vertex 11.8652 24.5644 0
      vertex 20 28 0
      vertex 12.3176 24.4329 0
    endloop
  endfacet
  facet normal 0 0 -1
    outer loop
      vertex 11.4054 24.6672 0
      vertex 20 28 0
      vertex 11.8652 24.5644 0
    endloop
  endfacet
  facet normal 0 0 -1
    outer loop
      vertex 10.94 24.7409 0
      vertex 20 28 0
      vertex 11.4054 24.6672 0
    endloop
  endfacet
  facet normal 0 0 -1
    outer loop
      vertex 10.4709 24.7852 0
      vertex 20 28 0
      vertex 10.94 24.7409 0
    endloop
  endfacet
  facet normal 0 0 -1
    outer loop
      vertex 10 24.8 0
      vertex 20 28 0
      vertex 10.4709 24.7852 0
    endloop
  endfacet
  facet normal 0 0 -1
    outer loop
      vertex -10 24.8 0
      vertex 20 28 0
      vertex 10 24.8 0
    endloop
  endfacet
  facet normal 0 0 -1
    outer loop
      vertex -20 28 0
      vertex -10 24.8 0
      vertex -10.4709 24.7852 0
    endloop
  endfacet
  facet normal 0 0 -1
    outer loop
      vertex -20 28 0
      vertex -10.4709 24.7852 0
      vertex -10.94 24.7409 0
    endloop
  endfacet
  facet normal 0 0 -1
    outer loop
      vertex -17.4852 16.8291 0
      vertex -20 28 0
      vertex -17.5 17.3 0
    endloop
  endfacet
  facet normal 0 0 -1
    outer loop
      vertex -10 24.8 0
      vertex -20 28 0
      vertex 20 28 0
    endloop
  endfacet
  facet normal 0 0 -1
    outer loop
      vertex -11.4054 24.6672 0
      vertex -20 28 0
      vertex -10.94 24.7409 0
    endloop
  endfacet
  facet normal 0 0 -1
    outer loop
      vertex -11.8652 24.5644 0
      vertex -20 28 0
      vertex -11.4054 24.6672 0
    endloop
  endfacet
  facet normal 0 0 -1
    outer loop
      vertex -12.3176 24.4329 0
      vertex -20 28 0
      vertex -11.8652 24.5644 0
    endloop
  endfacet
  facet normal 0 0 -1
    outer loop
      vertex -12.7609 24.2733 0
      vertex -20 28 0
      vertex -12.3176 24.4329 0
    endloop
  endfacet
  facet normal 0 0 -1
    outer loop
      vertex -13.1933 24.0862 0
      vertex -20 28 0
      vertex -12.7609 24.2733 0
    endloop
  endfacet
  facet normal 0 0 -1
    outer loop
      vertex -13.6132 23.8723 0
      vertex -20 28 0
      vertex -13.1933 24.0862 0
    endloop
  endfacet
  facet normal 0 0 -1
    outer loop
      vertex -14.0187 23.6325 0
      vertex -20 28 0
      vertex -13.6132 23.8723 0
    endloop
  endfacet
  facet normal 0 0 -1
    outer loop
      vertex -14.4084 23.3676 0
      vertex -20 28 0
      vertex -14.0187 23.6325 0
    endloop
  endfacet
  facet normal 0 0 -1
    outer loop
      vertex -14.7807 23.0788 0
      vertex -20 28 0
      vertex -14.4084 23.3676 0
    endloop
  endfacet
  facet normal 0 0 -1
    outer loop
      vertex -15.1341 22.7673 0
      vertex -20 28 0
      vertex -14.7807 23.0788 0
    endloop
  endfacet
  facet normal 0 0 -1
    outer loop
      vertex -15.4673 22.4341 0
      vertex -20 28 0
      vertex -15.1341 22.7673 0
    endloop
  endfacet
  facet normal 0 0 -1
    outer loop
      vertex -15.7788 22.0807 0
      vertex -20 28 0
      vertex -15.4673 22.4341 0
    endloop
  endfacet
  facet normal 0 0 -1
    outer loop
      vertex -16.0676 21.7084 0
      vertex -20 28 0
      vertex -15.7788 22.0807 0
    endloop
  endfacet
  facet normal 0 0 -1
    outer loop
      vertex -16.3325 21.3187 0
      vertex -20 28 0
      vertex -16.0676 21.7084 0
    endloop
  endfacet
  facet normal 0 0 -1
    outer loop
      vertex -16.5723 20.9132 0
      vertex -20 28 0
      vertex -16.3325 21.3187 0
    endloop
  endfacet
  facet normal 0 0 -1
    outer loop
      vertex -16.7862 20.4933 0
      vertex -20 28 0
      vertex -16.5723 20.9132 0
    endloop
  endfacet
  facet normal 0 0 -1
    outer loop
      vertex -16.9733 20.0609 0
      vertex -20 28 0
      vertex -16.7862 20.4933 0
    endloop
  endfacet
  facet normal 0 0 -1
    outer loop
      vertex -17.1329 19.6176 0
      vertex -20 28 0
      vertex -16.9733 20.0609 0
    endloop
  endfacet
  facet normal 0 0 -1
    outer loop
      vertex -17.2644 19.1652 0
      vertex -20 28 0
      vertex -17.1329 19.6176 0
    endloop
  endfacet
  facet normal 0 0 -1
    outer loop
      vertex -17.3672 18.7054 0
      vertex -20 28 0
      vertex -17.2644 19.1652 0
    endloop
  endfacet
  facet normal 0 0 -1
    outer loop
      vertex -17.4409 18.24 0
      vertex -20 28 0
      vertex -17.3672 18.7054 0
    endloop
  endfacet
  facet normal 0 0 -1
    outer loop
      vertex -17.4852 17.7709 0
      vertex -20 28 0
      vertex -17.4409 18.24 0
    endloop
  endfacet
  facet normal 0 0 -1
    outer loop
      vertex -17.5 17.3 0
      vertex -20 28 0
      vertex -17.4852 17.7709 0
    endloop
  endfacet
  facet normal 0 -1 0
    outer loop
      vertex -20 -12 0
      vertex 20 -12 3
      vertex -20 -12 3
    endloop
  endfacet
  facet normal 0 -1 -0
    outer loop
      vertex 20 -12 3
      vertex -20 -12 0
      vertex 20 -12 0
    endloop
  endfacet
  facet normal -0.940881 0.338736 0
    outer loop
      vertex 16.9733 14.5391 0
      vertex 17.1329 14.9824 3
      vertex 17.1329 14.9824 0
    endloop
  endfacet
  facet normal -0.940881 0.338736 0
    outer loop
      vertex 17.1329 14.9824 3
      vertex 16.9733 14.5391 0
      vertex 16.9733 14.5391 3
    endloop
  endfacet
  facet normal -0.790156 -0.612906 0
    outer loop
      vertex 16.0676 21.7084 0
      vertex 15.7788 22.0807 3
      vertex 15.7788 22.0807 0
    endloop
  endfacet
  facet normal -0.790156 -0.612906 0
    outer loop
      vertex 15.7788 22.0807 3
      vertex 16.0676 21.7084 0
      vertex 16.0676 21.7084 3
    endloop
  endfacet
  facet normal -0.827081 -0.562083 0
    outer loop
      vertex 16.3325 21.3187 0
      vertex 16.0676 21.7084 3
      vertex 16.0676 21.7084 0
    endloop
  endfacet
  facet normal -0.827081 -0.562083 0
    outer loop
      vertex 16.0676 21.7084 3
      vertex 16.3325 21.3187 0
      vertex 16.3325 21.3187 3
    endloop
  endfacet
  facet normal 0.999506 0.031414 0
    outer loop
      vertex -17.4852 16.8291 3
      vertex -17.5 17.3 0
      vertex -17.5 17.3 3
    endloop
  endfacet
  facet normal 0.999506 0.031414 0
    outer loop
      vertex -17.5 17.3 0
      vertex -17.4852 16.8291 3
      vertex -17.4852 16.8291 0
    endloop
  endfacet
  facet normal 0 -1 0
    outer loop
      vertex -10 24.8 0
      vertex 10 24.8 3
      vertex -10 24.8 3
    endloop
  endfacet
  facet normal 0 -1 -0
    outer loop
      vertex 10 24.8 3
      vertex -10 24.8 0
      vertex 10 24.8 0
    endloop
  endfacet
  facet normal -0.860741 0.509043 0
    outer loop
      vertex 6.33246 -4.0187 0
      vertex 6.5723 -3.61315 3
      vertex 6.5723 -3.61315 0
    endloop
  endfacet
  facet normal -0.860741 0.509043 0
    outer loop
      vertex 6.5723 -3.61315 3
      vertex 6.33246 -4.0187 0
      vertex 6.33246 -4.0187 3
    endloop
  endfacet
  facet normal 0.865769 0.500444 0
    outer loop
      vertex -6.5723 -3.61315 3
      vertex -16.5723 13.6868 0
      vertex -16.5723 13.6868 3
    endloop
  endfacet
  facet normal 0.865769 0.500444 0
    outer loop
      vertex -16.5723 13.6868 0
      vertex -6.5723 -3.61315 3
      vertex -6.5723 -3.61315 0
    endloop
  endfacet
  facet normal 0.790156 -0.612906 0
    outer loop
      vertex -16.0676 21.7084 3
      vertex -15.7788 22.0807 0
      vertex -15.7788 22.0807 3
    endloop
  endfacet
  facet normal 0.790156 -0.612906 0
    outer loop
      vertex -15.7788 22.0807 0
      vertex -16.0676 21.7084 3
      vertex -16.0676 21.7084 0
    endloop
  endfacet
  facet normal -0.0941082 -0.995562 0
    outer loop
      vertex 10.4709 24.7852 0
      vertex 10.94 24.7409 3
      vertex 10.4709 24.7852 3
    endloop
  endfacet
  facet normal -0.0941082 -0.995562 -0
    outer loop
      vertex 10.94 24.7409 3
      vertex 10.4709 24.7852 0
      vertex 10.94 24.7409 0
    endloop
  endfacet
  facet normal -0.0314099 -0.999507 0
    outer loop
      vertex 10 24.8 0
      vertex 10.4709 24.7852 3
      vertex 10 24.8 3
    endloop
  endfacet
  facet normal -0.0314099 -0.999507 -0
    outer loop
      vertex 10.4709 24.7852 3
      vertex 10 24.8 0
      vertex 10.4709 24.7852 0
    endloop
  endfacet
  facet normal -0.707108 -0.707106 0
    outer loop
      vertex 15.4673 22.4341 0
      vertex 15.1341 22.7673 3
      vertex 15.1341 22.7673 0
    endloop
  endfacet
  facet normal -0.707108 -0.707106 0
    outer loop
      vertex 15.1341 22.7673 3
      vertex 15.4673 22.4341 0
      vertex 15.4673 22.4341 3
    endloop
  endfacet
  facet normal -0.156434 0.987688 0
    outer loop
      vertex 1.40536 -7.36715 0
      vertex 0.939999 -7.44086 3
      vertex 1.40536 -7.36715 3
    endloop
  endfacet
  facet normal -0.156434 0.987688 0
    outer loop
      vertex 0.939999 -7.44086 3
      vertex 1.40536 -7.36715 0
      vertex 0.939999 -7.44086 0
    endloop
  endfacet
  facet normal -0.707107 0.707107 0
    outer loop
      vertex 5.1341 -5.46726 0
      vertex 5.46726 -5.1341 3
      vertex 5.46726 -5.1341 0
    endloop
  endfacet
  facet normal -0.707107 0.707107 0
    outer loop
      vertex 5.46726 -5.1341 3
      vertex 5.1341 -5.46726 0
      vertex 5.1341 -5.46726 3
    endloop
  endfacet
  facet normal -0.865769 0.500444 0
    outer loop
      vertex 6.5723 -3.61315 0
      vertex 16.5723 13.6868 3
      vertex 16.5723 13.6868 0
    endloop
  endfacet
  facet normal -0.865769 0.500444 0
    outer loop
      vertex 16.5723 13.6868 3
      vertex 6.5723 -3.61315 0
      vertex 6.5723 -3.61315 3
    endloop
  endfacet
  facet normal 0.750111 0.661312 0
    outer loop
      vertex -5.46726 -5.1341 3
      vertex -5.77885 -4.78068 0
      vertex -5.77885 -4.78068 3
    endloop
  endfacet
  facet normal 0.750111 0.661312 0
    outer loop
      vertex -5.77885 -4.78068 0
      vertex -5.46726 -5.1341 3
      vertex -5.46726 -5.1341 0
    endloop
  endfacet
  facet normal 0.790155 0.612907 0
    outer loop
      vertex -5.77885 -4.78068 3
      vertex -6.06763 -4.40839 0
      vertex -6.06763 -4.40839 3
    endloop
  endfacet
  facet normal 0.790155 0.612907 0
    outer loop
      vertex -6.06763 -4.40839 0
      vertex -5.77885 -4.78068 3
      vertex -5.77885 -4.78068 0
    endloop
  endfacet
  facet normal 0.562083 0.827081 -0
    outer loop
      vertex -4.0187 -6.33246 0
      vertex -4.40839 -6.06763 3
      vertex -4.0187 -6.33246 3
    endloop
  endfacet
  facet normal 0.562083 0.827081 0
    outer loop
      vertex -4.40839 -6.06763 3
      vertex -4.0187 -6.33246 0
      vertex -4.40839 -6.06763 0
    endloop
  endfacet
  facet normal 0.860741 0.509043 0
    outer loop
      vertex -6.33246 -4.0187 3
      vertex -6.5723 -3.61315 0
      vertex -6.5723 -3.61315 3
    endloop
  endfacet
  facet normal 0.860741 0.509043 0
    outer loop
      vertex -6.5723 -3.61315 0
      vertex -6.33246 -4.0187 3
      vertex -6.33246 -4.0187 0
    endloop
  endfacet
  facet normal 0.940881 0.338736 0
    outer loop
      vertex -16.9733 14.5391 3
      vertex -17.1329 14.9824 0
      vertex -17.1329 14.9824 3
    endloop
  endfacet
  facet normal 0.940881 0.338736 0
    outer loop
      vertex -17.1329 14.9824 0
      vertex -16.9733 14.5391 3
      vertex -16.9733 14.5391 0
    endloop
  endfacet
  facet normal 0.975917 0.21814 0
    outer loop
      vertex -17.2644 15.4348 3
      vertex -17.3672 15.8946 0
      vertex -17.3672 15.8946 3
    endloop
  endfacet
  facet normal 0.975917 0.21814 0
    outer loop
      vertex -17.3672 15.8946 0
      vertex -17.2644 15.4348 3
      vertex -17.2644 15.4348 0
    endloop
  endfacet
  facet normal 0.995562 0.0941041 0
    outer loop
      vertex -17.4409 16.36 3
      vertex -17.4852 16.8291 0
      vertex -17.4852 16.8291 3
    endloop
  endfacet
  facet normal 0.995562 0.0941041 0
    outer loop
      vertex -17.4852 16.8291 0
      vertex -17.4409 16.36 3
      vertex -17.4409 16.36 0
    endloop
  endfacet
  facet normal 0.612905 -0.790157 0
    outer loop
      vertex -14.7807 23.0788 0
      vertex -14.4084 23.3676 3
      vertex -14.7807 23.0788 3
    endloop
  endfacet
  facet normal 0.612905 -0.790157 0
    outer loop
      vertex -14.4084 23.3676 3
      vertex -14.7807 23.0788 0
      vertex -14.4084 23.3676 0
    endloop
  endfacet
  facet normal 0.0314099 -0.999507 0
    outer loop
      vertex -10.4709 24.7852 0
      vertex -10 24.8 3
      vertex -10.4709 24.7852 3
    endloop
  endfacet
  facet normal 0.0314099 -0.999507 0
    outer loop
      vertex -10 24.8 3
      vertex -10.4709 24.7852 0
      vertex -10 24.8 0
    endloop
  endfacet
  facet normal -0.397148 -0.917755 0
    outer loop
      vertex 12.7609 24.2733 0
      vertex 13.1933 24.0862 3
      vertex 12.7609 24.2733 3
    endloop
  endfacet
  facet normal -0.397148 -0.917755 -0
    outer loop
      vertex 13.1933 24.0862 3
      vertex 12.7609 24.2733 0
      vertex 13.1933 24.0862 0
    endloop
  endfacet
  facet normal -0.397148 0.917755 0
    outer loop
      vertex 3.19334 -6.7862 0
      vertex 2.76093 -6.97332 3
      vertex 3.19334 -6.7862 3
    endloop
  endfacet
  facet normal -0.397148 0.917755 0
    outer loop
      vertex 2.76093 -6.97332 3
      vertex 3.19334 -6.7862 0
      vertex 2.76093 -6.97332 0
    endloop
  endfacet
  facet normal -0.999506 0.031414 0
    outer loop
      vertex 17.4852 16.8291 0
      vertex 17.5 17.3 3
      vertex 17.5 17.3 0
    endloop
  endfacet
  facet normal -0.999506 0.031414 0
    outer loop
      vertex 17.5 17.3 3
      vertex 17.4852 16.8291 0
      vertex 17.4852 16.8291 3
    endloop
  endfacet
  facet normal -0.975917 0.21814 0
    outer loop
      vertex 17.2644 15.4348 0
      vertex 17.3672 15.8946 3
      vertex 17.3672 15.8946 0
    endloop
  endfacet
  facet normal -0.975917 0.21814 0
    outer loop
      vertex 17.3672 15.8946 3
      vertex 17.2644 15.4348 0
      vertex 17.2644 15.4348 3
    endloop
  endfacet
  facet normal -0.917753 0.397151 0
    outer loop
      vertex 16.7862 14.1067 0
      vertex 16.9733 14.5391 3
      vertex 16.9733 14.5391 0
    endloop
  endfacet
  facet normal -0.917753 0.397151 0
    outer loop
      vertex 16.9733 14.5391 3
      vertex 16.7862 14.1067 0
      vertex 16.7862 14.1067 3
    endloop
  endfacet
  facet normal -0.891008 0.453988 0
    outer loop
      vertex 16.5723 13.6868 0
      vertex 16.7862 14.1067 3
      vertex 16.7862 14.1067 0
    endloop
  endfacet
  facet normal -0.891008 0.453988 0
    outer loop
      vertex 16.7862 14.1067 3
      vertex 16.5723 13.6868 0
      vertex 16.5723 13.6868 3
    endloop
  endfacet
  facet normal 0.827081 0.562083 0
    outer loop
      vertex -6.06763 -4.40839 3
      vertex -6.33246 -4.0187 0
      vertex -6.33246 -4.0187 3
    endloop
  endfacet
  facet normal 0.827081 0.562083 0
    outer loop
      vertex -6.33246 -4.0187 0
      vertex -6.06763 -4.40839 3
      vertex -6.06763 -4.40839 0
    endloop
  endfacet
  facet normal 0.612907 0.790155 -0
    outer loop
      vertex -4.40839 -6.06763 0
      vertex -4.78068 -5.77885 3
      vertex -4.40839 -6.06763 3
    endloop
  endfacet
  facet normal 0.612907 0.790155 0
    outer loop
      vertex -4.78068 -5.77885 3
      vertex -4.40839 -6.06763 0
      vertex -4.78068 -5.77885 0
    endloop
  endfacet
  facet normal 0.891008 0.453988 0
    outer loop
      vertex -16.5723 13.6868 3
      vertex -16.7862 14.1067 0
      vertex -16.7862 14.1067 3
    endloop
  endfacet
  facet normal 0.891008 0.453988 0
    outer loop
      vertex -16.7862 14.1067 0
      vertex -16.5723 13.6868 3
      vertex -16.5723 13.6868 0
    endloop
  endfacet
  facet normal 0.987688 0.156438 0
    outer loop
      vertex -17.3672 15.8946 3
      vertex -17.4409 16.36 0
      vertex -17.4409 16.36 3
    endloop
  endfacet
  facet normal 0.987688 0.156438 0
    outer loop
      vertex -17.4409 16.36 0
      vertex -17.3672 15.8946 3
      vertex -17.3672 15.8946 0
    endloop
  endfacet
  facet normal 0.999506 -0.031414 0
    outer loop
      vertex -17.5 17.3 3
      vertex -17.4852 17.7709 0
      vertex -17.4852 17.7709 3
    endloop
  endfacet
  facet normal 0.999506 -0.031414 0
    outer loop
      vertex -17.4852 17.7709 0
      vertex -17.5 17.3 3
      vertex -17.5 17.3 0
    endloop
  endfacet
  facet normal 0.975917 -0.218142 0
    outer loop
      vertex -17.3672 18.7054 3
      vertex -17.2644 19.1652 0
      vertex -17.2644 19.1652 3
    endloop
  endfacet
  facet normal 0.975917 -0.218142 0
    outer loop
      vertex -17.2644 19.1652 0
      vertex -17.3672 18.7054 3
      vertex -17.3672 18.7054 0
    endloop
  endfacet
  facet normal 0.987688 -0.156437 0
    outer loop
      vertex -17.4409 18.24 3
      vertex -17.3672 18.7054 0
      vertex -17.3672 18.7054 3
    endloop
  endfacet
  facet normal 0.987688 -0.156437 0
    outer loop
      vertex -17.3672 18.7054 0
      vertex -17.4409 18.24 3
      vertex -17.4409 18.24 0
    endloop
  endfacet
  facet normal 0.917753 -0.397152 0
    outer loop
      vertex -16.9733 20.0609 3
      vertex -16.7862 20.4933 0
      vertex -16.7862 20.4933 3
    endloop
  endfacet
  facet normal 0.917753 -0.397152 0
    outer loop
      vertex -16.7862 20.4933 0
      vertex -16.9733 20.0609 3
      vertex -16.9733 20.0609 0
    endloop
  endfacet
  facet normal 0.453991 -0.891006 0
    outer loop
      vertex -13.6132 23.8723 0
      vertex -13.1933 24.0862 3
      vertex -13.6132 23.8723 3
    endloop
  endfacet
  facet normal 0.453991 -0.891006 0
    outer loop
      vertex -13.1933 24.0862 3
      vertex -13.6132 23.8723 0
      vertex -13.1933 24.0862 0
    endloop
  endfacet
  facet normal 0.509043 -0.860741 0
    outer loop
      vertex -14.0187 23.6325 0
      vertex -13.6132 23.8723 3
      vertex -14.0187 23.6325 3
    endloop
  endfacet
  facet normal 0.509043 -0.860741 0
    outer loop
      vertex -13.6132 23.8723 3
      vertex -14.0187 23.6325 0
      vertex -13.6132 23.8723 0
    endloop
  endfacet
  facet normal 0.338736 -0.940881 0
    outer loop
      vertex -12.7609 24.2733 0
      vertex -12.3176 24.4329 3
      vertex -12.7609 24.2733 3
    endloop
  endfacet
  facet normal 0.338736 -0.940881 0
    outer loop
      vertex -12.3176 24.4329 3
      vertex -12.7609 24.2733 0
      vertex -12.3176 24.4329 0
    endloop
  endfacet
  facet normal 0.278993 -0.960293 0
    outer loop
      vertex -12.3176 24.4329 0
      vertex -11.8652 24.5644 3
      vertex -12.3176 24.4329 3
    endloop
  endfacet
  facet normal 0.278993 -0.960293 0
    outer loop
      vertex -11.8652 24.5644 3
      vertex -12.3176 24.4329 0
      vertex -11.8652 24.5644 0
    endloop
  endfacet
  facet normal 0.0941082 -0.995562 0
    outer loop
      vertex -10.94 24.7409 0
      vertex -10.4709 24.7852 3
      vertex -10.94 24.7409 3
    endloop
  endfacet
  facet normal 0.0941082 -0.995562 0
    outer loop
      vertex -10.4709 24.7852 3
      vertex -10.94 24.7409 0
      vertex -10.4709 24.7852 0
    endloop
  endfacet
  facet normal -0.156434 -0.987688 0
    outer loop
      vertex 10.94 24.7409 0
      vertex 11.4054 24.6672 3
      vertex 10.94 24.7409 3
    endloop
  endfacet
  facet normal -0.156434 -0.987688 -0
    outer loop
      vertex 11.4054 24.6672 3
      vertex 10.94 24.7409 0
      vertex 11.4054 24.6672 0
    endloop
  endfacet
  facet normal -0.218145 -0.975916 0
    outer loop
      vertex 11.4054 24.6672 0
      vertex 11.8652 24.5644 3
      vertex 11.4054 24.6672 3
    endloop
  endfacet
  facet normal -0.218145 -0.975916 -0
    outer loop
      vertex 11.8652 24.5644 3
      vertex 11.4054 24.6672 0
      vertex 11.8652 24.5644 0
    endloop
  endfacet
  facet normal -0.987688 -0.156437 0
    outer loop
      vertex 17.4409 18.24 0
      vertex 17.3672 18.7054 3
      vertex 17.3672 18.7054 0
    endloop
  endfacet
  facet normal -0.987688 -0.156437 0
    outer loop
      vertex 17.3672 18.7054 3
      vertex 17.4409 18.24 0
      vertex 17.4409 18.24 3
    endloop
  endfacet
  facet normal -0.975917 -0.218142 0
    outer loop
      vertex 17.3672 18.7054 0
      vertex 17.2644 19.1652 3
      vertex 17.2644 19.1652 0
    endloop
  endfacet
  facet normal -0.975917 -0.218142 0
    outer loop
      vertex 17.2644 19.1652 3
      vertex 17.3672 18.7054 0
      vertex 17.3672 18.7054 3
    endloop
  endfacet
  facet normal 0.156434 0.987688 -0
    outer loop
      vertex -0.939999 -7.44086 0
      vertex -1.40536 -7.36715 3
      vertex -0.939999 -7.44086 3
    endloop
  endfacet
  facet normal 0.156434 0.987688 0
    outer loop
      vertex -1.40536 -7.36715 3
      vertex -0.939999 -7.44086 0
      vertex -1.40536 -7.36715 0
    endloop
  endfacet
  facet normal 0.278991 0.960294 -0
    outer loop
      vertex -1.86517 -7.26437 0
      vertex -2.31763 -7.13292 3
      vertex -1.86517 -7.26437 3
    endloop
  endfacet
  facet normal 0.278991 0.960294 0
    outer loop
      vertex -2.31763 -7.13292 3
      vertex -1.86517 -7.26437 0
      vertex -2.31763 -7.13292 0
    endloop
  endfacet
  facet normal 0.338738 0.940881 -0
    outer loop
      vertex -2.31763 -7.13292 0
      vertex -2.76093 -6.97332 3
      vertex -2.31763 -7.13292 3
    endloop
  endfacet
  facet normal 0.338738 0.940881 0
    outer loop
      vertex -2.76093 -6.97332 3
      vertex -2.31763 -7.13292 0
      vertex -2.76093 -6.97332 0
    endloop
  endfacet
  facet normal -0.612907 0.790155 0
    outer loop
      vertex 4.78068 -5.77885 0
      vertex 4.40839 -6.06763 3
      vertex 4.78068 -5.77885 3
    endloop
  endfacet
  facet normal -0.612907 0.790155 0
    outer loop
      vertex 4.40839 -6.06763 3
      vertex 4.78068 -5.77885 0
      vertex 4.40839 -6.06763 0
    endloop
  endfacet
  facet normal -0.750111 0.661312 0
    outer loop
      vertex 5.46726 -5.1341 0
      vertex 5.77885 -4.78068 3
      vertex 5.77885 -4.78068 0
    endloop
  endfacet
  facet normal -0.750111 0.661312 0
    outer loop
      vertex 5.77885 -4.78068 3
      vertex 5.46726 -5.1341 0
      vertex 5.46726 -5.1341 3
    endloop
  endfacet
  facet normal -0.790155 0.612907 0
    outer loop
      vertex 5.77885 -4.78068 0
      vertex 6.06763 -4.40839 3
      vertex 6.06763 -4.40839 0
    endloop
  endfacet
  facet normal -0.790155 0.612907 0
    outer loop
      vertex 6.06763 -4.40839 3
      vertex 5.77885 -4.78068 0
      vertex 5.77885 -4.78068 3
    endloop
  endfacet
  facet normal -0.562083 0.827081 0
    outer loop
      vertex 4.40839 -6.06763 0
      vertex 4.0187 -6.33246 3
      vertex 4.40839 -6.06763 3
    endloop
  endfacet
  facet normal -0.562083 0.827081 0
    outer loop
      vertex 4.0187 -6.33246 3
      vertex 4.40839 -6.06763 0
      vertex 4.0187 -6.33246 0
    endloop
  endfacet
  facet normal -0.509043 0.860741 0
    outer loop
      vertex 4.0187 -6.33246 0
      vertex 3.61315 -6.5723 3
      vertex 4.0187 -6.33246 3
    endloop
  endfacet
  facet normal -0.509043 0.860741 0
    outer loop
      vertex 3.61315 -6.5723 3
      vertex 4.0187 -6.33246 0
      vertex 3.61315 -6.5723 0
    endloop
  endfacet
  facet normal -0.338738 0.940881 0
    outer loop
      vertex 2.76093 -6.97332 0
      vertex 2.31763 -7.13292 3
      vertex 2.76093 -6.97332 3
    endloop
  endfacet
  facet normal -0.338738 0.940881 0
    outer loop
      vertex 2.31763 -7.13292 3
      vertex 2.76093 -6.97332 0
      vertex 2.31763 -7.13292 0
    endloop
  endfacet
  facet normal -0.218145 0.975916 0
    outer loop
      vertex 1.86517 -7.26437 0
      vertex 1.40536 -7.36715 3
      vertex 1.86517 -7.26437 3
    endloop
  endfacet
  facet normal -0.218145 0.975916 0
    outer loop
      vertex 1.40536 -7.36715 3
      vertex 1.86517 -7.26437 0
      vertex 1.40536 -7.36715 0
    endloop
  endfacet
  facet normal -0.995562 0.0941041 0
    outer loop
      vertex 17.4409 16.36 0
      vertex 17.4852 16.8291 3
      vertex 17.4852 16.8291 0
    endloop
  endfacet
  facet normal -0.995562 0.0941041 0
    outer loop
      vertex 17.4852 16.8291 3
      vertex 17.4409 16.36 0
      vertex 17.4409 16.36 3
    endloop
  endfacet
  facet normal -0.960293 0.278993 0
    outer loop
      vertex 17.1329 14.9824 0
      vertex 17.2644 15.4348 3
      vertex 17.2644 15.4348 0
    endloop
  endfacet
  facet normal -0.960293 0.278993 0
    outer loop
      vertex 17.2644 15.4348 3
      vertex 17.1329 14.9824 0
      vertex 17.1329 14.9824 3
    endloop
  endfacet
  facet normal -0.987688 0.156438 0
    outer loop
      vertex 17.3672 15.8946 0
      vertex 17.4409 16.36 3
      vertex 17.4409 16.36 0
    endloop
  endfacet
  facet normal -0.987688 0.156438 0
    outer loop
      vertex 17.4409 16.36 3
      vertex 17.3672 15.8946 0
      vertex 17.3672 15.8946 3
    endloop
  endfacet
  facet normal 0.661312 0.750111 -0
    outer loop
      vertex -4.78068 -5.77885 0
      vertex -5.1341 -5.46726 3
      vertex -4.78068 -5.77885 3
    endloop
  endfacet
  facet normal 0.661312 0.750111 0
    outer loop
      vertex -5.1341 -5.46726 3
      vertex -4.78068 -5.77885 0
      vertex -5.1341 -5.46726 0
    endloop
  endfacet
  facet normal 0.707107 0.707107 0
    outer loop
      vertex -5.1341 -5.46726 3
      vertex -5.46726 -5.1341 0
      vertex -5.46726 -5.1341 3
    endloop
  endfacet
  facet normal 0.707107 0.707107 0
    outer loop
      vertex -5.46726 -5.1341 0
      vertex -5.1341 -5.46726 3
      vertex -5.1341 -5.46726 0
    endloop
  endfacet
  facet normal 0.960293 0.278993 0
    outer loop
      vertex -17.1329 14.9824 3
      vertex -17.2644 15.4348 0
      vertex -17.2644 15.4348 3
    endloop
  endfacet
  facet normal 0.960293 0.278993 0
    outer loop
      vertex -17.2644 15.4348 0
      vertex -17.1329 14.9824 3
      vertex -17.1329 14.9824 0
    endloop
  endfacet
  facet normal 0.917753 0.397151 0
    outer loop
      vertex -16.7862 14.1067 3
      vertex -16.9733 14.5391 0
      vertex -16.9733 14.5391 3
    endloop
  endfacet
  facet normal 0.917753 0.397151 0
    outer loop
      vertex -16.9733 14.5391 0
      vertex -16.7862 14.1067 3
      vertex -16.7862 14.1067 0
    endloop
  endfacet
  facet normal 0.995562 -0.0941041 0
    outer loop
      vertex -17.4852 17.7709 3
      vertex -17.4409 18.24 0
      vertex -17.4409 18.24 3
    endloop
  endfacet
  facet normal 0.995562 -0.0941041 0
    outer loop
      vertex -17.4409 18.24 0
      vertex -17.4852 17.7709 3
      vertex -17.4852 17.7709 0
    endloop
  endfacet
  facet normal 0.960293 -0.278993 0
    outer loop
      vertex -17.2644 19.1652 3
      vertex -17.1329 19.6176 0
      vertex -17.1329 19.6176 3
    endloop
  endfacet
  facet normal 0.960293 -0.278993 0
    outer loop
      vertex -17.1329 19.6176 0
      vertex -17.2644 19.1652 3
      vertex -17.2644 19.1652 0
    endloop
  endfacet
  facet normal 0.860742 -0.509041 0
    outer loop
      vertex -16.5723 20.9132 3
      vertex -16.3325 21.3187 0
      vertex -16.3325 21.3187 3
    endloop
  endfacet
  facet normal 0.860742 -0.509041 0
    outer loop
      vertex -16.3325 21.3187 0
      vertex -16.5723 20.9132 3
      vertex -16.5723 20.9132 0
    endloop
  endfacet
  facet normal 0.891007 -0.453989 0
    outer loop
      vertex -16.7862 20.4933 3
      vertex -16.5723 20.9132 0
      vertex -16.5723 20.9132 3
    endloop
  endfacet
  facet normal 0.891007 -0.453989 0
    outer loop
      vertex -16.5723 20.9132 0
      vertex -16.7862 20.4933 3
      vertex -16.7862 20.4933 0
    endloop
  endfacet
  facet normal 0.75011 -0.661313 0
    outer loop
      vertex -15.7788 22.0807 3
      vertex -15.4673 22.4341 0
      vertex -15.4673 22.4341 3
    endloop
  endfacet
  facet normal 0.75011 -0.661313 0
    outer loop
      vertex -15.4673 22.4341 0
      vertex -15.7788 22.0807 3
      vertex -15.7788 22.0807 0
    endloop
  endfacet
  facet normal 0.562083 -0.827081 0
    outer loop
      vertex -14.4084 23.3676 0
      vertex -14.0187 23.6325 3
      vertex -14.4084 23.3676 3
    endloop
  endfacet
  facet normal 0.562083 -0.827081 0
    outer loop
      vertex -14.0187 23.6325 3
      vertex -14.4084 23.3676 0
      vertex -14.0187 23.6325 0
    endloop
  endfacet
  facet normal 0.397148 -0.917755 0
    outer loop
      vertex -13.1933 24.0862 0
      vertex -12.7609 24.2733 3
      vertex -13.1933 24.0862 3
    endloop
  endfacet
  facet normal 0.397148 -0.917755 0
    outer loop
      vertex -12.7609 24.2733 3
      vertex -13.1933 24.0862 0
      vertex -12.7609 24.2733 0
    endloop
  endfacet
  facet normal 0.218145 -0.975916 0
    outer loop
      vertex -11.8652 24.5644 0
      vertex -11.4054 24.6672 3
      vertex -11.8652 24.5644 3
    endloop
  endfacet
  facet normal 0.218145 -0.975916 0
    outer loop
      vertex -11.4054 24.6672 3
      vertex -11.8652 24.5644 0
      vertex -11.4054 24.6672 0
    endloop
  endfacet
  facet normal 0.156434 -0.987688 0
    outer loop
      vertex -11.4054 24.6672 0
      vertex -10.94 24.7409 3
      vertex -11.4054 24.6672 3
    endloop
  endfacet
  facet normal 0.156434 -0.987688 0
    outer loop
      vertex -10.94 24.7409 3
      vertex -11.4054 24.6672 0
      vertex -10.94 24.7409 0
    endloop
  endfacet
  facet normal -0.612905 -0.790157 0
    outer loop
      vertex 14.4084 23.3676 0
      vertex 14.7807 23.0788 3
      vertex 14.4084 23.3676 3
    endloop
  endfacet
  facet normal -0.612905 -0.790157 -0
    outer loop
      vertex 14.7807 23.0788 3
      vertex 14.4084 23.3676 0
      vertex 14.7807 23.0788 0
    endloop
  endfacet
  facet normal -0.338736 -0.940881 0
    outer loop
      vertex 12.3176 24.4329 0
      vertex 12.7609 24.2733 3
      vertex 12.3176 24.4329 3
    endloop
  endfacet
  facet normal -0.338736 -0.940881 -0
    outer loop
      vertex 12.7609 24.2733 3
      vertex 12.3176 24.4329 0
      vertex 12.7609 24.2733 0
    endloop
  endfacet
  facet normal -0.891007 -0.453989 0
    outer loop
      vertex 16.7862 20.4933 0
      vertex 16.5723 20.9132 3
      vertex 16.5723 20.9132 0
    endloop
  endfacet
  facet normal -0.891007 -0.453989 0
    outer loop
      vertex 16.5723 20.9132 3
      vertex 16.7862 20.4933 0
      vertex 16.7862 20.4933 3
    endloop
  endfacet
  facet normal -0.860742 -0.509041 0
    outer loop
      vertex 16.5723 20.9132 0
      vertex 16.3325 21.3187 3
      vertex 16.3325 21.3187 0
    endloop
  endfacet
  facet normal -0.860742 -0.509041 0
    outer loop
      vertex 16.3325 21.3187 3
      vertex 16.5723 20.9132 0
      vertex 16.5723 20.9132 3
    endloop
  endfacet
  facet normal -0.75011 -0.661313 0
    outer loop
      vertex 15.7788 22.0807 0
      vertex 15.4673 22.4341 3
      vertex 15.4673 22.4341 0
    endloop
  endfacet
  facet normal -0.75011 -0.661313 0
    outer loop
      vertex 15.4673 22.4341 3
      vertex 15.7788 22.0807 0
      vertex 15.7788 22.0807 3
    endloop
  endfacet
  facet normal -0.917753 -0.397152 0
    outer loop
      vertex 16.9733 20.0609 0
      vertex 16.7862 20.4933 3
      vertex 16.7862 20.4933 0
    endloop
  endfacet
  facet normal -0.917753 -0.397152 0
    outer loop
      vertex 16.7862 20.4933 3
      vertex 16.9733 20.0609 0
      vertex 16.9733 20.0609 3
    endloop
  endfacet
  facet normal -0.940882 -0.338735 0
    outer loop
      vertex 17.1329 19.6176 0
      vertex 16.9733 20.0609 3
      vertex 16.9733 20.0609 0
    endloop
  endfacet
  facet normal -0.940882 -0.338735 0
    outer loop
      vertex 16.9733 20.0609 3
      vertex 17.1329 19.6176 0
      vertex 17.1329 19.6176 3
    endloop
  endfacet
  facet normal -0.960293 -0.278993 0
    outer loop
      vertex 17.2644 19.1652 0
      vertex 17.1329 19.6176 3
      vertex 17.1329 19.6176 0
    endloop
  endfacet
  facet normal -0.960293 -0.278993 0
    outer loop
      vertex 17.1329 19.6176 3
      vertex 17.2644 19.1652 0
      vertex 17.2644 19.1652 3
    endloop
  endfacet
  facet normal -0.995562 -0.0941041 0
    outer loop
      vertex 17.4852 17.7709 0
      vertex 17.4409 18.24 3
      vertex 17.4409 18.24 0
    endloop
  endfacet
  facet normal -0.995562 -0.0941041 0
    outer loop
      vertex 17.4409 18.24 3
      vertex 17.4852 17.7709 0
      vertex 17.4852 17.7709 3
    endloop
  endfacet
  facet normal -0.0314119 0.999507 0
    outer loop
      vertex 0.470928 -7.4852 0
      vertex 0 -7.5 3
      vertex 0.470928 -7.4852 3
    endloop
  endfacet
  facet normal -0.0314119 0.999507 0
    outer loop
      vertex 0 -7.5 3
      vertex 0.470928 -7.4852 0
      vertex 0 -7.5 0
    endloop
  endfacet
  facet normal 0.0941082 0.995562 -0
    outer loop
      vertex -0.470928 -7.4852 0
      vertex -0.939999 -7.44086 3
      vertex -0.470928 -7.4852 3
    endloop
  endfacet
  facet normal 0.0941082 0.995562 0
    outer loop
      vertex -0.939999 -7.44086 3
      vertex -0.470928 -7.4852 0
      vertex -0.939999 -7.44086 0
    endloop
  endfacet
  facet normal 0.0314119 0.999507 -0
    outer loop
      vertex 0 -7.5 0
      vertex -0.470928 -7.4852 3
      vertex 0 -7.5 3
    endloop
  endfacet
  facet normal 0.0314119 0.999507 0
    outer loop
      vertex -0.470928 -7.4852 3
      vertex 0 -7.5 0
      vertex -0.470928 -7.4852 0
    endloop
  endfacet
  facet normal -0.827081 0.562083 0
    outer loop
      vertex 6.06763 -4.40839 0
      vertex 6.33246 -4.0187 3
      vertex 6.33246 -4.0187 0
    endloop
  endfacet
  facet normal -0.827081 0.562083 0
    outer loop
      vertex 6.33246 -4.0187 3
      vertex 6.06763 -4.40839 0
      vertex 6.06763 -4.40839 3
    endloop
  endfacet
  facet normal -0.661312 0.750111 0
    outer loop
      vertex 5.1341 -5.46726 0
      vertex 4.78068 -5.77885 3
      vertex 5.1341 -5.46726 3
    endloop
  endfacet
  facet normal -0.661312 0.750111 0
    outer loop
      vertex 4.78068 -5.77885 3
      vertex 5.1341 -5.46726 0
      vertex 4.78068 -5.77885 0
    endloop
  endfacet
  facet normal -0.45399 0.891007 0
    outer loop
      vertex 3.61315 -6.5723 0
      vertex 3.19334 -6.7862 3
      vertex 3.61315 -6.5723 3
    endloop
  endfacet
  facet normal -0.45399 0.891007 0
    outer loop
      vertex 3.19334 -6.7862 3
      vertex 3.61315 -6.5723 0
      vertex 3.19334 -6.7862 0
    endloop
  endfacet
  facet normal -0.999506 -0.031414 0
    outer loop
      vertex 17.5 17.3 0
      vertex 17.4852 17.7709 3
      vertex 17.4852 17.7709 0
    endloop
  endfacet
  facet normal -0.999506 -0.031414 0
    outer loop
      vertex 17.4852 17.7709 3
      vertex 17.5 17.3 0
      vertex 17.5 17.3 3
    endloop
  endfacet
  facet normal 0.509043 0.860741 -0
    outer loop
      vertex -3.61315 -6.5723 0
      vertex -4.0187 -6.33246 3
      vertex -3.61315 -6.5723 3
    endloop
  endfacet
  facet normal 0.509043 0.860741 0
    outer loop
      vertex -4.0187 -6.33246 3
      vertex -3.61315 -6.5723 0
      vertex -4.0187 -6.33246 0
    endloop
  endfacet
  facet normal 0.827081 -0.562083 0
    outer loop
      vertex -16.3325 21.3187 3
      vertex -16.0676 21.7084 0
      vertex -16.0676 21.7084 3
    endloop
  endfacet
  facet normal 0.827081 -0.562083 0
    outer loop
      vertex -16.0676 21.7084 0
      vertex -16.3325 21.3187 3
      vertex -16.3325 21.3187 0
    endloop
  endfacet
  facet normal 0.940882 -0.338735 0
    outer loop
      vertex -17.1329 19.6176 3
      vertex -16.9733 20.0609 0
      vertex -16.9733 20.0609 3
    endloop
  endfacet
  facet normal 0.940882 -0.338735 0
    outer loop
      vertex -16.9733 20.0609 0
      vertex -17.1329 19.6176 3
      vertex -17.1329 19.6176 0
    endloop
  endfacet
  facet normal 0.707108 -0.707106 0
    outer loop
      vertex -15.4673 22.4341 3
      vertex -15.1341 22.7673 0
      vertex -15.1341 22.7673 3
    endloop
  endfacet
  facet normal 0.707108 -0.707106 0
    outer loop
      vertex -15.1341 22.7673 0
      vertex -15.4673 22.4341 3
      vertex -15.4673 22.4341 0
    endloop
  endfacet
  facet normal 0.661312 -0.750111 0
    outer loop
      vertex -15.1341 22.7673 0
      vertex -14.7807 23.0788 3
      vertex -15.1341 22.7673 3
    endloop
  endfacet
  facet normal 0.661312 -0.750111 0
    outer loop
      vertex -14.7807 23.0788 3
      vertex -15.1341 22.7673 0
      vertex -14.7807 23.0788 0
    endloop
  endfacet
  facet normal -0.661312 -0.750111 0
    outer loop
      vertex 14.7807 23.0788 0
      vertex 15.1341 22.7673 3
      vertex 14.7807 23.0788 3
    endloop
  endfacet
  facet normal -0.661312 -0.750111 -0
    outer loop
      vertex 15.1341 22.7673 3
      vertex 14.7807 23.0788 0
      vertex 15.1341 22.7673 0
    endloop
  endfacet
  facet normal -0.453991 -0.891006 0
    outer loop
      vertex 13.1933 24.0862 0
      vertex 13.6132 23.8723 3
      vertex 13.1933 24.0862 3
    endloop
  endfacet
  facet normal -0.453991 -0.891006 -0
    outer loop
      vertex 13.6132 23.8723 3
      vertex 13.1933 24.0862 0
      vertex 13.6132 23.8723 0
    endloop
  endfacet
  facet normal -0.509043 -0.860741 0
    outer loop
      vertex 13.6132 23.8723 0
      vertex 14.0187 23.6325 3
      vertex 13.6132 23.8723 3
    endloop
  endfacet
  facet normal -0.509043 -0.860741 -0
    outer loop
      vertex 14.0187 23.6325 3
      vertex 13.6132 23.8723 0
      vertex 14.0187 23.6325 0
    endloop
  endfacet
  facet normal -0.562083 -0.827081 0
    outer loop
      vertex 14.0187 23.6325 0
      vertex 14.4084 23.3676 3
      vertex 14.0187 23.6325 3
    endloop
  endfacet
  facet normal -0.562083 -0.827081 -0
    outer loop
      vertex 14.4084 23.3676 3
      vertex 14.0187 23.6325 0
      vertex 14.4084 23.3676 0
    endloop
  endfacet
  facet normal -0.278993 -0.960293 0
    outer loop
      vertex 11.8652 24.5644 0
      vertex 12.3176 24.4329 3
      vertex 11.8652 24.5644 3
    endloop
  endfacet
  facet normal -0.278993 -0.960293 -0
    outer loop
      vertex 12.3176 24.4329 3
      vertex 11.8652 24.5644 0
      vertex 12.3176 24.4329 0
    endloop
  endfacet
  facet normal -0.0941082 0.995562 0
    outer loop
      vertex 0.939999 -7.44086 0
      vertex 0.470928 -7.4852 3
      vertex 0.939999 -7.44086 3
    endloop
  endfacet
  facet normal -0.0941082 0.995562 0
    outer loop
      vertex 0.470928 -7.4852 3
      vertex 0.939999 -7.44086 0
      vertex 0.470928 -7.4852 0
    endloop
  endfacet
  facet normal 0.218145 0.975916 -0
    outer loop
      vertex -1.40536 -7.36715 0
      vertex -1.86517 -7.26437 3
      vertex -1.40536 -7.36715 3
    endloop
  endfacet
  facet normal 0.218145 0.975916 0
    outer loop
      vertex -1.86517 -7.26437 3
      vertex -1.40536 -7.36715 0
      vertex -1.86517 -7.26437 0
    endloop
  endfacet
  facet normal 0.397148 0.917755 -0
    outer loop
      vertex -2.76093 -6.97332 0
      vertex -3.19334 -6.7862 3
      vertex -2.76093 -6.97332 3
    endloop
  endfacet
  facet normal 0.397148 0.917755 0
    outer loop
      vertex -3.19334 -6.7862 3
      vertex -2.76093 -6.97332 0
      vertex -3.19334 -6.7862 0
    endloop
  endfacet
  facet normal 0.45399 0.891007 -0
    outer loop
      vertex -3.19334 -6.7862 0
      vertex -3.61315 -6.5723 3
      vertex -3.19334 -6.7862 3
    endloop
  endfacet
  facet normal 0.45399 0.891007 0
    outer loop
      vertex -3.61315 -6.5723 3
      vertex -3.19334 -6.7862 0
      vertex -3.61315 -6.5723 0
    endloop
  endfacet
  facet normal -0.278991 0.960294 0
    outer loop
      vertex 2.31763 -7.13292 0
      vertex 1.86517 -7.26437 3
      vertex 2.31763 -7.13292 3
    endloop
  endfacet
  facet normal -0.278991 0.960294 0
    outer loop
      vertex 1.86517 -7.26437 3
      vertex 2.31763 -7.13292 0
      vertex 1.86517 -7.26437 0
    endloop
  endfacet
endsolid OpenSCAD_Model
